<?xml version="1.0" encoding="UTF-8"?>
<!DOCTYPE svg PUBLIC "-//W3C//DTD SVG 1.1//EN" "http://www.w3.org/Graphics/SVG/1.1/DTD/svg11.dtd">
<!-- Creator: CorelDRAW X8 -->
<svg xmlns="http://www.w3.org/2000/svg" xml:space="preserve" width="32px" height="20px" version="1.1" style="shape-rendering:geometricPrecision; text-rendering:geometricPrecision; image-rendering:optimizeQuality; fill-rule:evenodd; clip-rule:evenodd"
viewBox="0 0 223 138"
 xmlns:xlink="http://www.w3.org/1999/xlink">
 <defs>
  <style type="text/css">
   <![CDATA[
    .fil0 {fill:white}
   ]]>
  </style>
 </defs>
 <g id="Camada_x0020_1">
  <metadata id="CorelCorpID_0Corel-Layer"/>
  <g id="_1919833233232">
   <path class="fil0" d="M149 66c0,-21 -28,-55 -38,-66 -9,11 -37,45 -37,66 0,21 16,38 37,38 21,0 38,-17 38,-38zm-8 -3c0,-17 -22,-43 -30,-51 -7,8 -29,34 -29,51 0,16 13,29 29,29 17,0 30,-13 30,-29z"/>
   <path class="fil0" d="M135 59c2,14 -12,31 -21,26 0,-1 -5,-4 -1,-10 3,-7 18,-5 22,-16z"/>
   <path class="fil0" d="M176 76c28,6 47,16 47,28 0,19 -50,34 -112,34 -61,0 -111,-15 -111,-34 0,-12 18,-22 47,-28 -15,6 -24,13 -24,22 0,17 39,32 88,32 49,0 89,-15 89,-32 0,-9 -9,-16 -24,-22z"/>
   <path class="fil0" d="M146 78c15,4 25,11 25,18 0,13 -27,23 -60,23 -32,0 -59,-10 -59,-23 0,-7 10,-14 25,-18 -8,4 -13,9 -13,14 0,12 21,22 47,22 26,0 48,-10 48,-22 0,-5 -5,-10 -13,-14z"/>
  </g>
 </g>
</svg>
